{
  "accessors": [
    {
      "bufferView": 2,
      "componentType": 5126,
      "count": 171,
      "max": [
        0.5134997367858887,
        0.31374549865722656,
        0.5134997367858887
      ],
      "min": [
        -0.5134997367858887,
        -0.38084983825683594,
        -0.5134998559951782
      ],
      "type": "VEC3"
    },
    {
      "bufferView": 2,
      "byteOffset": 2052,
      "componentType": 5126,
      "count": 171,
      "max": [
        1.0,
        1.0,
        1.0
      ],
      "min": [
        -1.0,
        -0.9626289010047913,
        -1.0
      ],
      "type": "VEC3"
    },
    {
      "bufferView": 1,
      "componentType": 5126,
      "count": 171,
      "max": [
        0.875,
        0.9375
      ],
      "min": [
        0.125,
        0.012516811490058899
      ],
      "type": "VEC2"
    },
    {
      "bufferView": 0,
      "componentType": 5125,
      "count": 300,
      "type": "SCALAR"
    },
    {
      "bufferView": 2,
      "byteOffset": 4104,
      "componentType": 5126,
      "count": 701,
      "max": [
        0.5342289805412292,
        0.31374549865722656,
        0.5342289209365845
      ],
      "min": [
        -0.5342289209365845,
        -0.5443449020385742,
        -0.5342289805412292
      ],
      "type": "VEC3"
    },
    {
      "bufferView": 2,
      "byteOffset": 12516,
      "componentType": 5126,
      "count": 701,
      "max": [
        1.0,
        1.0,
        1.0
      ],
      "min": [
        -1.0,
        -1.0,
        -1.0
      ],
      "type": "VEC3"
    },
    {
      "bufferView": 1,
      "byteOffset": 1368,
      "componentType": 5126,
      "count": 701,
      "max": [
        0.875,
        1.0
      ],
      "min": [
        0.125,
        0.0
      ],
      "type": "VEC2"
    },
    {
      "bufferView": 0,
      "byteOffset": 1200,
      "componentType": 5125,
      "count": 1170,
      "type": "SCALAR"
    },
    {
      "bufferView": 2,
      "byteOffset": 20928,
      "componentType": 5126,
      "count": 964,
      "max": [
        0.5342289805412292,
        0.37246328592300415,
        0.607823371887207
      ],
      "min": [
        -0.5342289209365845,
        -0.5443449020385742,
        -0.5342289805412292
      ],
      "type": "VEC3"
    },
    {
      "bufferView": 2,
      "byteOffset": 32496,
      "componentType": 5126,
      "count": 964,
      "max": [
        1.0,
        1.0,
        1.0
      ],
      "min": [
        -1.0,
        -1.0,
        -1.0
      ],
      "type": "VEC3"
    },
    {
      "bufferView": 1,
      "byteOffset": 6976,
      "componentType": 5126,
      "count": 964,
      "max": [
        0.875,
        1.0
      ],
      "min": [
        0.125,
        0.0
      ],
      "type": "VEC2"
    },
    {
      "bufferView": 0,
      "byteOffset": 5880,
      "componentType": 5125,
      "count": 1854,
      "type": "SCALAR"
    },
    {
      "bufferView": 2,
      "byteOffset": 44064,
      "componentType": 5126,
      "count": 8,
      "max": [
        0.5314254760742188,
        0.33424949645996094,
        0.5
      ],
      "min": [
        -0.5314254760742188,
        0.31873321533203125,
        0.5
      ],
      "type": "VEC3"
    },
    {
      "bufferView": 2,
      "byteOffset": 44160,
      "componentType": 5126,
      "count": 8,
      "max": [
        0.0,
        0.0,
        -1.0
      ],
      "min": [
        0.0,
        0.0,
        -1.0
      ],
      "type": "VEC3"
    },
    {
      "bufferView": 1,
      "byteOffset": 14688,
      "componentType": 5126,
      "count": 8,
      "max": [
        0.5625,
        0.125
      ],
      "min": [
        0.4375,
        0.125
      ],
      "type": "VEC2"
    },
    {
      "bufferView": 0,
      "byteOffset": 13296,
      "componentType": 5125,
      "count": 12,
      "type": "SCALAR"
    },
    {
      "bufferView": 2,
      "byteOffset": 44256,
      "componentType": 5126,
      "count": 190,
      "max": [
        0.5000009536743164,
        0.5946336984634399,
        1.0000009536743164
      ],
      "min": [
        -0.499999076128006,
        -0.16126775741577148,
        -2.980232238769531e-07
      ],
      "type": "VEC3"
    },
    {
      "bufferView": 2,
      "byteOffset": 46536,
      "componentType": 5126,
      "count": 190,
      "max": [
        1.0,
        0.6127496361732483,
        1.0
      ],
      "min": [
        -1.0,
        -1.0,
        -1.0
      ],
      "type": "VEC3"
    },
    {
      "bufferView": 1,
      "byteOffset": 14752,
      "componentType": 5126,
      "count": 190,
      "max": [
        0.875,
        0.6085848808288574
      ],
      "min": [
        0.125,
        0.13415037095546722
      ],
      "type": "VEC2"
    },
    {
      "bufferView": 0,
      "byteOffset": 13344,
      "componentType": 5125,
      "count": 486,
      "type": "SCALAR"
    },
    {
      "bufferView": 2,
      "byteOffset": 48816,
      "componentType": 5126,
      "count": 588,
      "max": [
        0.5506284236907959,
        0.6166074275970459,
        1.05240797996521
      ],
      "min": [
        -0.5506265163421631,
        -1.5497207641601563e-06,
        -0.04884645342826843
      ],
      "type": "VEC3"
    },
    {
      "bufferView": 2,
      "byteOffset": 55872,
      "componentType": 5126,
      "count": 588,
      "max": [
        1.0,
        1.0,
        1.0
      ],
      "min": [
        -1.0,
        -1.0,
        -1.0
      ],
      "type": "VEC3"
    },
    {
      "bufferView": 1,
      "byteOffset": 16272,
      "componentType": 5126,
      "count": 588,
      "max": [
        0.875,
        0.6158496141433716
      ],
      "min": [
        0.125,
        0.13415035605430603
      ],
      "type": "VEC2"
    },
    {
      "bufferView": 0,
      "byteOffset": 15288,
      "componentType": 5125,
      "count": 1044,
      "type": "SCALAR"
    },
    {
      "bufferView": 2,
      "byteOffset": 62928,
      "componentType": 5126,
      "count": 103,
      "max": [
        0.4559307098388672,
        0.5679366588592529,
        0.9559295177459717
      ],
      "min": [
        -0.4559288024902344,
        -1.1920928955078125e-06,
        0.04407051205635071
      ],
      "type": "VEC3"
    },
    {
      "bufferView": 2,
      "byteOffset": 64164,
      "componentType": 5126,
      "count": 103,
      "max": [
        1.0,
        1.0,
        0.47401249408721924
      ],
      "min": [
        -1.0,
        -1.0,
        -1.0
      ],
      "type": "VEC3"
    },
    {
      "bufferView": 1,
      "byteOffset": 20976,
      "componentType": 5126,
      "count": 103,
      "max": [
        0.875,
        0.6085848808288574
      ],
      "min": [
        0.125,
        0.13415035605430603
      ],
      "type": "VEC2"
    },
    {
      "bufferView": 0,
      "byteOffset": 19464,
      "componentType": 5125,
      "count": 156,
      "type": "SCALAR"
    },
    {
      "bufferView": 2,
      "byteOffset": 65400,
      "componentType": 5126,
      "count": 59,
      "max": [
        0.2500009536743164,
        0.3315662145614624,
        1.2299184799194336
      ],
      "min": [
        -0.2499990314245224,
        -0.18056362867355347,
        0.9999995231628418
      ],
      "type": "VEC3"
    },
    {
      "bufferView": 2,
      "byteOffset": 66108,
      "componentType": 5126,
      "count": 59,
      "max": [
        1.0,
        0.9968746304512024,
        0.9999677538871765
      ],
      "min": [
        -1.0,
        -1.0,
        -0.1101759523153305
      ],
      "type": "VEC3"
    },
    {
      "bufferView": 1,
      "byteOffset": 21800,
      "componentType": 5126,
      "count": 59,
      "max": [
        0.5625,
        0.1875
      ],
      "min": [
        0.4375,
        0.13415037095546722
      ],
      "type": "VEC2"
    },
    {
      "bufferView": 0,
      "byteOffset": 20088,
      "componentType": 5125,
      "count": 156,
      "type": "SCALAR"
    },
    {
      "bufferView": 3,
      "componentType": 5126,
      "count": 357,
      "max": [
        12.5
      ],
      "min": [
        0.0416666679084301
      ],
      "type": "SCALAR"
    },
    {
      "bufferView": 4,
      "componentType": 5126,
      "count": 357,
      "max": [
        0.0,
        0.0,
        0.0,
        1.0
      ],
      "min": [
        -0.8660253882408142,
        0.0,
        0.0,
        0.5
      ],
      "type": "VEC4"
    }
  ],
  "animations": [
    {
      "channels": [
        {
          "sampler": 0,
          "target": {
            "node": 10,
            "path": "rotation"
          }
        }
      ],
      "name": "Take 001",
      "samplers": [
        {
          "input": 32,
          "interpolation": "LINEAR",
          "output": 33
        }
      ]
    }
  ],
  "asset": {
    "extras": {
      "author": "strawbie133 (https://sketchfab.com/strawbie133)",
      "license": "CC-BY-4.0 (http://creativecommons.org/licenses/by/4.0/)",
      "source": "https://sketchfab.com/3d-models/low-poly-animated-nordic-chest-f93a855fcc9f4352a248080febfa3399",
      "title": "Low-poly Animated Nordic Chest"
    },
    "generator": "Sketchfab-12.66.0",
    "version": "2.0"
  },
  "bufferViews": [
    {
      "buffer": 0,
      "byteLength": 20712,
      "name": "floatBufferViews",
      "target": 34963
    },
    {
      "buffer": 0,
      "byteLength": 22272,
      "byteOffset": 20712,
      "byteStride": 8,
      "name": "floatBufferViews",
      "target": 34962
    },
    {
      "buffer": 0,
      "byteLength": 66816,
      "byteOffset": 42984,
      "byteStride": 12,
      "name": "floatBufferViews",
      "target": 34962
    },
    {
      "buffer": 0,
      "byteLength": 1428,
      "byteOffset": 109800,
      "name": "floatBufferViews"
    },
    {
      "buffer": 0,
      "byteLength": 5712,
      "byteOffset": 111228,
      "byteStride": 16,
      "name": "floatBufferViews"
    }
  ],
  "buffers": [
    {
      "byteLength": 116940,
      "uri": "scene.bin"
    }
  ],
  "extensionsRequired": [
    "KHR_materials_pbrSpecularGlossiness"
  ],
  "extensionsUsed": [
    "KHR_materials_pbrSpecularGlossiness"
  ],
  "images": [
    {
      "uri": "textures/ChestWood2_specularGlossiness.jpeg"
    },
    {
      "uri": "textures/ChestMetal2_specularGlossiness.jpeg"
    }
  ],
  "materials": [
    {
      "doubleSided": true,
      "extensions": {
        "KHR_materials_pbrSpecularGlossiness": {
          "diffuseFactor": [
            0.111,
            0.0715522,
            0.059718,
            1.0
          ],
          "glossinessFactor": 0.0,
          "specularFactor": [
            1.0,
            1.0,
            1.0
          ],
          "specularGlossinessTexture": {
            "index": 0
          }
        }
      },
      "name": "ChestWood2"
    },
    {
      "doubleSided": true,
      "extensions": {
        "KHR_materials_pbrSpecularGlossiness": {
          "diffuseFactor": [
            0.204,
            0.170105,
            0.145248,
            1.0
          ],
          "glossinessFactor": 0.0,
          "specularFactor": [
            0.5,
            0.5,
            0.5
          ],
          "specularGlossinessTexture": {
            "index": 0
          }
        }
      },
      "name": "ChestWood1"
    },
    {
      "doubleSided": true,
      "extensions": {
        "KHR_materials_pbrSpecularGlossiness": {
          "diffuseFactor": [
            0.563472,
            0.602,
            0.600518,
            1.0
          ],
          "glossinessFactor": 0.8942628736559436,
          "specularFactor": [
            1.0,
            1.0,
            1.0
          ],
          "specularGlossinessTexture": {
            "index": 1
          }
        }
      },
      "name": "ChestMetal2"
    },
    {
      "doubleSided": true,
      "extensions": {
        "KHR_materials_pbrSpecularGlossiness": {
          "diffuseFactor": [
            0.31034588596650325,
            0.29042642781000133,
            0.0937333525381874,
            1.0
          ],
          "glossinessFactor": 0.7,
          "specularFactor": [
            0.2,
            0.2,
            0.2
          ],
          "specularGlossinessTexture": {
            "index": 1
          }
        }
      },
      "name": "ChestMetal1"
    }
  ],
  "meshes": [
    {
      "name": "polySurface18_ChestWood2_0",
      "primitives": [
        {
          "attributes": {
            "NORMAL": 1,
            "POSITION": 0,
            "TEXCOORD_0": 2
          },
          "indices": 3,
          "material": 0,
          "mode": 4
        }
      ]
    },
    {
      "name": "polySurface18_ChestWood1_0",
      "primitives": [
        {
          "attributes": {
            "NORMAL": 5,
            "POSITION": 4,
            "TEXCOORD_0": 6
          },
          "indices": 7,
          "material": 1,
          "mode": 4
        }
      ]
    },
    {
      "name": "polySurface18_ChestMetal2_0",
      "primitives": [
        {
          "attributes": {
            "NORMAL": 9,
            "POSITION": 8,
            "TEXCOORD_0": 10
          },
          "indices": 11,
          "material": 2,
          "mode": 4
        }
      ]
    },
    {
      "name": "polySurface18_ChestMetal1_0",
      "primitives": [
        {
          "attributes": {
            "NORMAL": 13,
            "POSITION": 12,
            "TEXCOORD_0": 14
          },
          "indices": 15,
          "material": 3,
          "mode": 4
        }
      ]
    },
    {
      "name": "polySurface19_ChestWood1_0",
      "primitives": [
        {
          "attributes": {
            "NORMAL": 17,
            "POSITION": 16,
            "TEXCOORD_0": 18
          },
          "indices": 19,
          "material": 1,
          "mode": 4
        }
      ]
    },
    {
      "name": "polySurface19_ChestMetal2_0",
      "primitives": [
        {
          "attributes": {
            "NORMAL": 21,
            "POSITION": 20,
            "TEXCOORD_0": 22
          },
          "indices": 23,
          "material": 2,
          "mode": 4
        }
      ]
    },
    {
      "name": "polySurface19_ChestWood2_0",
      "primitives": [
        {
          "attributes": {
            "NORMAL": 25,
            "POSITION": 24,
            "TEXCOORD_0": 26
          },
          "indices": 27,
          "material": 0,
          "mode": 4
        }
      ]
    },
    {
      "name": "polySurface19_ChestMetal1_0",
      "primitives": [
        {
          "attributes": {
            "NORMAL": 29,
            "POSITION": 28,
            "TEXCOORD_0": 30
          },
          "indices": 31,
          "material": 3,
          "mode": 4
        }
      ]
    }
  ],
  "nodes": [
    {
      "children": [
        1
      ],
      "matrix": [
        132.50868225097656,
        0.0,
        0.0,
        0.0,
        0.0,
        2.94228379995546e-14,
        -132.50868225097656,
        0.0,
        0.0,
        132.50868225097656,
        2.94228379995546e-14,
        0.0,
        0.0,
        0.0,
        0.0,
        1.0
      ],
      "name": "Sketchfab_model"
    },
    {
      "children": [
        2
      ],
      "matrix": [
        0.009999999776482582,
        0.0,
        0.0,
        0.0,
        0.0,
        0.0,
        0.009999999776482582,
        0.0,
        0.0,
        -0.009999999776482582,
        0.0,
        0.0,
        0.0,
        0.0,
        0.0,
        1.0
      ],
      "name": "abda46ad3f484a5e888e7f0774c6db9f.fbx"
    },
    {
      "children": [
        3
      ],
      "name": "Object_2"
    },
    {
      "children": [
        4,
        10
      ],
      "name": "RootNode"
    },
    {
      "children": [
        5
      ],
      "name": "pCube2",
      "translation": [
        15.49542236328125,
        14.553609848022461,
        0.0
      ]
    },
    {
      "children": [
        6,
        7,
        8,
        9
      ],
      "name": "polySurface18",
      "translation": [
        -15.49542236328125,
        -14.010598182678223,
        0.0
      ]
    },
    {
      "mesh": 0,
      "name": "polySurface18_ChestWood2_0"
    },
    {
      "mesh": 1,
      "name": "polySurface18_ChestWood1_0"
    },
    {
      "mesh": 2,
      "name": "polySurface18_ChestMetal2_0"
    },
    {
      "mesh": 3,
      "name": "polySurface18_ChestMetal1_0"
    },
    {
      "children": [
        11,
        12,
        13,
        14
      ],
      "name": "polySurface19",
      "rotation": [
        -0.011254264041781425,
        -0.0,
        0.0,
        0.9999367594718933
      ],
      "translation": [
        0.0,
        0.8784180879592896,
        -0.49821966886520386
      ]
    },
    {
      "mesh": 4,
      "name": "polySurface19_ChestWood1_0"
    },
    {
      "mesh": 5,
      "name": "polySurface19_ChestMetal2_0"
    },
    {
      "mesh": 6,
      "name": "polySurface19_ChestWood2_0"
    },
    {
      "mesh": 7,
      "name": "polySurface19_ChestMetal1_0"
    }
  ],
  "samplers": [
    {
      "magFilter": 9729,
      "minFilter": 9987,
      "wrapS": 10497,
      "wrapT": 10497
    }
  ],
  "scene": 0,
  "scenes": [
    {
      "name": "Sketchfab_Scene",
      "nodes": [
        0
      ]
    }
  ],
  "textures": [
    {
      "sampler": 0,
      "source": 0
    },
    {
      "sampler": 0,
      "source": 1
    }
  ]
}
